<?xml version="1.0" encoding="utf-8"?>
<!-- Generator: Adobe Illustrator 28.0.0, SVG Export Plug-In . SVG Version: 6.00 Build 0)  -->
<svg version="1.1" id="Слой_1" xmlns="http://www.w3.org/2000/svg" xmlns:xlink="http://www.w3.org/1999/xlink" x="0px" y="0px"
	 viewBox="0 0 35 9" style="enable-background:new 0 0 35 9;" xml:space="preserve">
<style type="text/css">
	.st0{fill-rule:evenodd;clip-rule:evenodd;fill:#0A2457;}
	.st1{fill:#0C1227;}
	.st2{font-family:'Helvetica';}
	.st3{font-size:3.8228px;}
	.st4{fill:#EB6832;}
	.st5{font-family:'Helvetica-Bold';}
	.st6{font-size:4.7887px;}
	.st7{fill:#0A2457;}
	.st8{font-size:4.7358px;}
</style>
<g>
	<path class="st0" d="M2.46,1.58C1.93,1.77,1.5,2.05,1.1,2.44c-0.56,0.55-0.92,1.25-1.03,2C-0.04,5.17,0.07,5.89,0.4,6.55
		c0.17,0.34,0.37,0.62,0.65,0.91c0.3,0.31,0.6,0.53,0.96,0.72C3,8.69,4.18,8.76,5.22,8.35c0.53-0.21,0.96-0.49,1.37-0.91
		c0.07-0.07,0.14-0.15,0.16-0.18c0.02-0.02,0.06-0.08,0.09-0.11c0.13-0.16,0.34-0.49,0.32-0.52c-0.01-0.01,0-0.01,0-0.01
		C7.18,6.66,7.34,6.3,7.43,6.03c0.05-0.15,0.08-0.29,0.08-0.3c0,0-1.32-0.01-2.92-0.01c-2.39,0-2.91,0-2.91,0.02
		c0,0.01,0.04,0.09,0.08,0.19c0.08,0.17,0.21,0.36,0.31,0.46l0.05,0.05h2.16c1.97,0,2.16,0,2.15,0.02c-0.01,0.03-0.13,0.21-0.2,0.29
		C5.84,7.23,5.27,7.61,4.68,7.77C4.37,7.86,4.13,7.89,3.8,7.89c-0.49,0-0.94-0.11-1.37-0.32C1.55,7.14,0.96,6.35,0.81,5.39
		C0.78,5.21,0.77,4.79,0.8,4.61c0.09-0.65,0.36-1.18,0.81-1.64c0.21-0.21,0.48-0.42,0.73-0.55C2.4,2.39,2.45,2.36,2.45,2.36
		c0.01-0.01,0.15-0.77,0.15-0.81C2.61,1.52,2.61,1.52,2.46,1.58L2.46,1.58z"/>
	<path class="st0" d="M5.01,1.54c0,0.01,0.02,0.11,0.04,0.23C5.09,2,5.15,2.34,5.15,2.35c0,0,0.06,0.04,0.13,0.07
		c0.14,0.08,0.37,0.23,0.5,0.34c0.14,0.11,0.34,0.32,0.45,0.47c0.05,0.07,0.1,0.13,0.1,0.13C6.35,3.37,6.5,3.63,6.55,3.73
		c0.16,0.32,0.27,0.72,0.28,1.09l0.01,0.16h0.38H7.6L7.59,4.83C7.56,4.3,7.45,3.86,7.24,3.43c-0.41-0.84-1.11-1.47-2-1.82
		C5.03,1.52,5.01,1.52,5.01,1.54L5.01,1.54z"/>
	<g>
		<path class="st0" d="M3.55,0.39c-0.09,0.04-0.24,0.1-0.33,0.14C3.13,0.56,3.05,0.6,3.04,0.61C3.03,0.62,3,0.77,2.97,0.94
			C2.94,1.12,2.91,1.31,2.9,1.36C2.89,1.42,2.79,1.97,2.69,2.6c-0.1,0.62-0.26,1.54-0.34,2.05C2.26,5.16,2.19,5.57,2.19,5.57
			c0,0,0.34,0,0.76,0h0.76l0.01-0.65C3.72,4.57,3.72,4.1,3.72,3.88V3.49L3.55,3.51C3.46,3.53,3.37,3.54,3.36,3.54
			c-0.02,0-0.02-0.03-0.01-0.19c0.02-0.51,0.08-1.43,0.08-1.44c0.01-0.01,0.07-0.02,0.15-0.04C3.73,1.84,3.73,1.83,3.74,1.8
			c0-0.02,0.01-0.36,0.01-0.76c0-0.57,0-0.72-0.02-0.72C3.73,0.32,3.64,0.35,3.55,0.39z"/>
		<path class="st0" d="M3.87,0.54c0,0.12,0.01,1.14,0.02,2.26c0.01,1.12,0.02,2.2,0.02,2.41v0.37h0.76c0.52,0,0.76,0,0.76-0.01
			c0-0.01-0.06-0.36-0.13-0.78C5.11,3.67,5.1,3.66,5.1,3.65c0,0-0.1-0.02-0.21-0.03C4.77,3.6,4.68,3.58,4.67,3.58
			C4.67,3.57,4.65,3.47,4.64,3.35C4.63,3.23,4.6,2.91,4.57,2.64C4.54,2.37,4.51,2.12,4.51,2.07L4.5,1.98l0.17,0.04
			c0.09,0.02,0.17,0.04,0.17,0.04c0,0-0.05-0.33-0.12-0.72c-0.07-0.4-0.12-0.72-0.12-0.73c0,0-0.08-0.04-0.18-0.08
			c-0.1-0.04-0.2-0.08-0.22-0.09c-0.16-0.07-0.29-0.12-0.3-0.12C3.87,0.32,3.87,0.39,3.87,0.54z"/>
	</g>
</g>
<path class="st0" d="M11.69,5.47c-0.03,0.38-0.18,0.68-0.44,0.9c-0.27,0.22-0.62,0.33-1.05,0.33c-0.5,0-0.88-0.16-1.15-0.47
	c-0.27-0.31-0.41-0.74-0.4-1.3c0-0.57,0.15-1,0.43-1.3c0.29-0.3,0.69-0.45,1.21-0.44c0.43,0,0.76,0.11,1,0.32
	c0.25,0.21,0.38,0.5,0.4,0.88l-0.68-0.01c-0.03-0.19-0.1-0.33-0.23-0.43c-0.12-0.1-0.29-0.15-0.5-0.15c-0.3,0-0.53,0.09-0.69,0.29
	C9.43,4.27,9.35,4.55,9.35,4.93c0,0.36,0.07,0.64,0.23,0.84c0.15,0.2,0.37,0.3,0.66,0.3c0.21,0,0.38-0.05,0.51-0.15
	c0.14-0.11,0.22-0.26,0.26-0.46L11.69,5.47L11.69,5.47z M14.63,6.24c-0.13,0.17-0.27,0.29-0.43,0.37c-0.16,0.08-0.34,0.11-0.56,0.11
	c-0.47,0-0.84-0.17-1.13-0.5c-0.29-0.33-0.43-0.75-0.43-1.28c0-0.53,0.15-0.95,0.44-1.27c0.29-0.32,0.68-0.47,1.16-0.47
	c0.42,0,0.76,0.11,1.02,0.31c0.26,0.2,0.41,0.48,0.46,0.83l-0.7-0.01c-0.04-0.18-0.13-0.31-0.26-0.4c-0.13-0.09-0.3-0.14-0.51-0.14
	c-0.28,0-0.5,0.1-0.66,0.3c-0.16,0.2-0.25,0.48-0.25,0.85c0,0.36,0.08,0.65,0.24,0.86c0.16,0.21,0.39,0.31,0.68,0.31
	c0.22,0,0.4-0.06,0.55-0.19c0.14-0.12,0.24-0.3,0.27-0.52L13.8,5.4l0-0.57l1.38,0.01l-0.02,1.8l-0.46,0L14.63,6.24L14.63,6.24z
	 M15.85,6.65l0.03-3.33l0.69,0.01l-0.03,3.33L15.85,6.65L15.85,6.65z M20.17,5.54c-0.03,0.38-0.18,0.68-0.44,0.9
	c-0.27,0.22-0.62,0.33-1.05,0.33c-0.5,0-0.88-0.16-1.15-0.47c-0.27-0.31-0.41-0.74-0.4-1.3c0-0.57,0.15-1,0.43-1.3
	c0.29-0.3,0.69-0.45,1.21-0.44c0.43,0,0.76,0.11,1,0.32c0.25,0.21,0.38,0.5,0.4,0.88l-0.68-0.01c-0.03-0.19-0.1-0.33-0.23-0.43
	c-0.12-0.1-0.29-0.15-0.5-0.15c-0.3,0-0.53,0.09-0.69,0.29C17.91,4.34,17.83,4.62,17.83,5c0,0.36,0.07,0.64,0.23,0.84
	c0.15,0.2,0.37,0.3,0.66,0.3c0.21,0,0.38-0.05,0.51-0.15c0.14-0.11,0.22-0.26,0.26-0.46L20.17,5.54L20.17,5.54z M21.27,5.03
	c0,0.37,0.08,0.65,0.24,0.86c0.16,0.21,0.39,0.31,0.68,0.31c0.3,0,0.52-0.1,0.69-0.3c0.16-0.2,0.25-0.48,0.25-0.85
	c0-0.37-0.08-0.65-0.24-0.86c-0.17-0.21-0.39-0.31-0.69-0.31c-0.29,0-0.52,0.1-0.68,0.3C21.36,4.37,21.28,4.66,21.27,5.03
	L21.27,5.03z M20.57,5.02c0-0.54,0.16-0.97,0.45-1.28c0.29-0.31,0.7-0.47,1.19-0.46c0.5,0,0.89,0.17,1.19,0.48
	c0.29,0.32,0.43,0.75,0.43,1.29c0,0.54-0.16,0.96-0.45,1.28c-0.3,0.32-0.7,0.47-1.2,0.47c-0.5,0-0.89-0.17-1.18-0.49
	C20.71,5.99,20.57,5.56,20.57,5.02z"/>
<text transform="matrix(0.7734 0 0 1 27.1665 6.1582)" class="st1 st2 st3">-</text>
<text transform="matrix(0.8957 0 0 1 28.5215 6.6973)" class="st4 st5 st6">Bel</text>
<text transform="matrix(0.8957 0 0 1 23.9766 6.6582)" class="st7 st5 st8">P</text>
</svg>
